# xmcd
# 
# Track frame offsets:
#     150
#     13687
#     25250
#     35925
#     57330
#     80252
#     99357
#     110390
#     131232
#     147355
#     170695
#     192420
#     207415
#     218812
#     237685
#     255907
#     273805
#     286402
#     303090
#     335725
# 
# Disc length: 4659
# 
# Revision: 1
# Processed by: cddbd v1.5.2PL0 Copyright (c) Steve Scherf et al.
# Submitted via: BonkEnc v1.0
# 
DISCID=2d123114
DTITLE=The James Cotton Band - Live and On The Move
DYEAR=0
DGENRE=Blues
TTITLE0=Cotton Boogie
TTITLE1=One More Mile
TTITLE2=All Walks Of Life
TTITLE3=Born In Missouri
TTITLE4=Flip, Flot and Fly
TTITLE5=Got My Mojo Workin
TTITLE6=Rocket 88
TTITLE7=Goodbye My Lady
TTITLE8=I Don't Know
TTITLE9=Caldonia
TTITLE10=Boogie Thing
TTITLE11=Good Morning Lil' School Girl
TTITLE12=Oh Baby You Don't Have To Go
TTITLE13=Help Me
TTITLE14=Fannie Mae
TTITLE15=Hot 'n Cold
TTITLE16=Teeny Weeny Bit
TTITLE17=Blow Wind Blow
TTITLE18=How Long Can A Fool Go Wrong
TTITLE19=Next Time You See Me
EXTD=
EXTT0=
EXTT1=
EXTT2=
EXTT3=
EXTT4=
EXTT5=
EXTT6=
EXTT7=
EXTT8=
EXTT9=
EXTT10=
EXTT11=
EXTT12=
EXTT13=
EXTT14=
EXTT15=
EXTT16=
EXTT17=
EXTT18=
EXTT19=
PLAYORDER=
